<svg xmlns="http://www.w3.org/2000/svg" viewBox="0 0 100 100" width="100" height="100">
  <defs>
    <linearGradient id="bg" x1="0" y1="0" x2="1" y2="1">
      <stop offset="0" stop-color="#FBEEDA"/>
      <stop offset="1" stop-color="#F2C79B"/>
    </linearGradient>
  </defs>
  <rect width="100" height="100" rx="22" fill="url(#bg)"/>
  <g transform="translate(6 14) scale(0.9)" fill="none" stroke="#3B342C" stroke-width="2.2" stroke-linecap="round" stroke-linejoin="round">
    <path d="M18 46 C30 30 46 26 58 30 C64 32 68 37 70 42 C74 40 79 41 82 45 C79 47 75 47 72 46 C71 52 66 57 58 58 C50 59 40 56 34 52 C40 54 47 55 52 53 C44 53 30 52 22 44 C28 46 35 47 40 46 C31 45 22 44 18 46 Z"/>
    <path d="M58 30 C52 20 40 14 28 14 C36 18 42 24 45 30"/>
    <path d="M45 30 C38 24 28 22 20 24 C28 26 34 30 38 35"/>
    <path d="M38 35 C31 32 22 33 16 38 C24 38 31 40 35 44"/>
    <circle cx="66" cy="41" r="1.1" fill="#3B342C" stroke="none"/>
    <path d="M82 45 C86 40 90 32 92 24" stroke="#C79A57"/>
    <path d="M92 24 C90 25 88 25 87 24 M92 24 C91 26 91 28 92 29 M89 28 C87 29 85 29 84 28 M89 28 C88 30 88 32 89 33 M86 32 C84 33 82 33 81 32 M86 32 C85 34 85 36 86 37" stroke="#C79A57"/>
  </g>
</svg>
